<svg width="500" height="796" viewBox="0 0 500 796" fill="none" xmlns="http://www.w3.org/2000/svg">
<path d="M291 291L391.923 57.8495C394.774 51.2633 401.265 47 408.442 47H411.996C418.549 47 422.905 53.7781 420.183 59.7384L314.582 291H291Z" fill="white"/>
<path d="M61.2664 699.817C61.2664 654.835 89.2269 628.922 137.336 628.922C160.362 628.922 182.36 637.628 206.415 637.628C226.277 637.628 233.902 610.79 235.622 590.643C236.044 585.69 240.049 581.661 245.02 581.661H259.503C264.473 581.661 268.497 585.695 269.132 590.625C271.677 610.391 281.858 637.628 298.108 637.628C323.19 637.628 344.161 628.922 367.187 628.922C413.445 628.922 439.555 654.835 439.555 699.817C439.555 711.582 438.685 720.054 437.26 727.31C436.385 731.769 432.065 734.575 427.566 733.934L409.266 731.329C404.399 730.637 401.008 726.167 401.504 721.276C402.156 714.855 402.55 708.854 402.55 703.547C402.55 683.854 389.597 673.283 367.187 673.283C343.34 673.283 322.779 682.819 298.932 682.819C271.792 682.819 256.373 662.712 255.757 628.508H248.766C248.15 662.712 231.702 682.819 205.592 682.819C180.716 682.819 160.156 673.283 137.336 673.283C112.459 673.283 98.2729 683.854 98.2729 703.547C98.2729 708.855 98.6666 714.855 99.3178 721.276C99.8139 726.168 96.4227 730.637 91.5553 731.329L73.2562 733.934C68.7573 734.575 64.4378 731.77 63.5621 727.311C62.1372 720.055 61.2664 711.583 61.2664 699.817Z" fill="white"/>
<path d="M286.945 270.309H106.862C101.891 270.309 97.8617 274.338 97.8617 279.309V347.128C97.8615 352.099 93.8321 356.128 88.8617 356.128H67.7992C62.8288 356.128 58.7994 352.099 58.7992 347.128V241.363C58.7992 233.078 65.5149 226.363 73.7992 226.363H306.768L286.945 270.309ZM423.734 226.363C432.018 226.363 438.734 233.078 438.734 241.363V347.128C438.734 352.099 434.704 356.128 429.734 356.128H408.671C403.701 356.128 399.671 352.099 399.671 347.128V279.309C399.671 274.338 395.642 270.309 390.671 270.309H330.997L350.336 226.363H423.734Z" fill="white"/>
<path d="M61 424.239C61 412.473 61.8709 404 63.2958 396.744C64.1714 392.285 68.491 389.481 72.9898 390.121L91.289 392.726C96.1563 393.419 99.5475 397.888 99.0514 402.779C98.4002 409.2 98.0066 415.201 98.0066 420.508C98.0066 440.201 112.193 450.772 137.069 450.772C159.89 450.772 180.449 441.236 205.326 441.236C231.436 441.236 247.883 461.346 248.5 495.547H255.49C256.107 461.346 271.526 441.236 298.665 441.236C322.513 441.236 343.073 450.772 366.921 450.772C389.331 450.772 402.284 440.201 402.284 420.508C402.284 415.201 401.889 409.201 401.238 402.78C400.741 397.888 404.132 393.419 409 392.726L427.299 390.121C431.799 389.481 436.119 392.286 436.994 396.746C438.418 404.001 439.289 412.474 439.289 424.239C439.289 469.221 413.178 495.133 366.921 495.133C343.894 495.133 322.923 486.428 297.842 486.428C281.592 486.428 271.411 513.665 268.866 533.431C268.231 538.36 264.207 542.395 259.236 542.395H244.753C239.783 542.395 235.778 538.365 235.355 533.413C233.635 513.265 226.011 486.428 206.148 486.428C182.094 486.428 160.096 495.133 137.069 495.133C88.9605 495.133 61 469.221 61 424.239Z" fill="white"/>
<path d="M108.917 320.878L112.63 405.38C113.312 420.903 127.839 432.05 143.009 428.692L181.211 420.235C204.091 415.171 227.166 425.188 244.793 440.629C248.669 444.025 251.467 446 252.241 446C252.544 446 253.132 445.739 253.951 445.234C276.191 431.511 300.136 416.03 325.572 422.03L352.351 428.347C367.394 431.896 382.02 421.081 383.037 405.659L388.595 321.315C389.356 309.777 380.202 300 368.639 300H354.75H319.5H249H128.898C117.508 300 108.417 309.499 108.917 320.878Z" fill="url(#paint0_linear_2077_3)"/>
<defs>
<linearGradient id="paint0_linear_2077_3" x1="181.221" y1="483.277" x2="220.748" y2="281.321" gradientUnits="userSpaceOnUse">
<stop offset="0.005" stop-color="#FFA5A5"/>
<stop offset="0.5025" stop-color="#FF5252"/>
<stop offset="1" stop-color="#CD0000"/>
</linearGradient>
</defs>
</svg>
