<svg width="282" height="446" viewBox="0 0 282 446" fill="none" xmlns="http://www.w3.org/2000/svg">
<path d="M0.291783 20.2876L5.29191 367.945C5.56894 387.207 27.1288 398.457 43.0867 387.665C75.794 365.548 120.515 383.274 133.532 420.55C139.06 436.382 143.264 446 144.241 446C145.285 446 149.731 436.518 155.329 419.549C166.963 384.277 209.414 366.9 239.548 388.613C253.751 398.848 273.609 388.95 273.987 371.447L281.559 20.4314C281.801 9.21943 272.778 0 261.564 0H246.75H211.5H141H20.2897C9.13153 0 0.131319 9.13057 0.291783 20.2876Z" fill="url(#paint0_linear_2077_10)"/>
<defs>
<linearGradient id="paint0_linear_2077_10" x1="73.2211" y1="559.872" x2="355.353" y2="87.989" gradientUnits="userSpaceOnUse">
<stop offset="0.005" stop-color="#FFA5A5"/>
<stop offset="0.5025" stop-color="#FF5252"/>
<stop offset="1" stop-color="#CD0000"/>
</linearGradient>
</defs>
</svg>
